<?xml version="1.0" encoding="utf-8"?>
<!-- Generator: Adobe Illustrator 21.0.2, SVG Export Plug-In . SVG Version: 6.00 Build 0)  -->
<svg version="1.1" id="Layer_1" xmlns="http://www.w3.org/2000/svg" xmlns:xlink="http://www.w3.org/1999/xlink" x="0px" y="0px"
	 viewBox="0 0 249.4 167.2" style="enable-background:new 0 0 249.4 167.2;" xml:space="preserve">
<style type="text/css">
	.st0{fill:none;}
	.st1{fill:#FFFFFF;}
	.st2{fill:none;stroke:#FFFFFF;stroke-width:3;stroke-miterlimit:10;}
</style>
<g>
	<path class="st0" d="M70.8,117.4H25.6c-6.9,0-12.5-5.6-12.5-12.5V59.7c0-6.9,5.6-12.5,12.5-12.5h45.2c6.9,0,12.5,5.6,12.5,12.5
		v45.2C83.3,111.8,77.7,117.4,70.8,117.4z"/>
	<g>
		<g>
			<path class="st1" d="M108.1,66.2c0.7,0,1.5,0.1,2.2,0.1c0.7,0,1.5,0,2.2,0c0.7,0,1.3,0,2,0c0.7,0,1.3-0.1,2-0.1v0.4
				c-0.9,0.1-1.6,0.4-2.2,0.7c-0.6,0.4-0.8,1-0.8,2c0,0.5,0.1,1.4,0.2,2.5c0.2,1.2,0.4,2.5,0.6,3.8c0.2,1.4,0.5,2.8,0.7,4.2
				c0.3,1.4,0.5,2.6,0.7,3.5c0.1,0.4,0.2,0.8,0.3,1.1c0.1,0.3,0.3,0.6,0.5,0.8c0.2,0.2,0.6,0.4,1,0.6c0.4,0.2,1,0.3,1.7,0.4v0.4
				c-0.8,0-1.7-0.1-2.5-0.1c-0.8,0-1.6,0-2.5,0c-0.8,0-1.6,0-2.3,0c-0.8,0-1.5,0.1-2.3,0.1v-0.4c0.4-0.1,0.9-0.1,1.2-0.2
				c0.4-0.1,0.7-0.2,1-0.4c0.3-0.2,0.5-0.4,0.7-0.8c0.2-0.3,0.2-1.9,0.2-2.3c0-0.4-0.1-0.9-0.2-1.4l-2.2-12.5h-0.1
				c-0.6,1.5-1.2,3-1.8,4.4c-0.6,1.5-1.3,2.9-1.9,4.4c-0.6,1.5-1.2,3-1.8,4.5c-0.6,1.5-1.1,3-1.6,4.6h-0.1c-1-3.2-2.1-6.3-3.4-9.3
				c-1.3-3-2.6-6-4-8.9h-0.1c-0.2,1.1-0.3,2.4-0.5,3.8c-0.2,1.4-0.3,2.7-0.5,4.1c-0.1,1.3-0.2,2.5-0.3,3.6c-0.1,1.1-0.1,1.9-0.1,2.4
				c0,0.7,0,1.3,0.1,1.8c0.1,0.5,0.3,0.9,0.5,1.2c0.3,0.3,0.6,0.6,1.1,0.7c0.5,0.2,1.1,0.3,1.8,0.3v0.4c-0.9,0-1.7-0.1-2.6-0.1
				c-0.8,0-1.7,0-2.6,0c-0.6,0-1.3,0-1.9,0c-0.6,0-1.3,0.1-1.9,0.1v-0.4c0.4,0,0.9-0.1,1.3-0.2c0.4-0.1,0.8-0.3,1.2-0.5
				c0.4-0.2,0.6-0.5,0.9-0.8s0.4-0.7,0.5-1.1c0.1-0.7,0.2-1.5,0.3-2.3c0.1-0.8,0.2-1.6,0.3-2.4L95,68c-0.4-0.4-1-0.6-1.6-0.9
				c-0.6-0.2-1.2-0.4-1.8-0.5v-0.4c0.9,0,1.8,0.1,2.7,0.1c0.9,0,1.8,0,2.7,0c0.6,0,1.3,0,1.9,0c0.6,0,1.3-0.1,1.9-0.1v0.4
				c-0.4,0.1-0.8,0.3-1.1,0.5c-0.3,0.2-0.5,0.6-0.5,1.1c0,0.4,0.1,0.7,0.2,1c0.1,0.3,0.2,0.7,0.4,1l4.4,10.8c1.1-2.2,2.1-4.4,3-6.6
				c1-2.2,1.8-4.5,2.6-6.8c-0.2-0.3-0.5-0.5-0.8-0.7c-0.3-0.2-0.6-0.3-1-0.4V66.2z"/>
			<path class="st1" d="M126.6,74.6c1,0,1.9,0.2,2.7,0.5c0.8,0.3,1.5,0.7,2.1,1.3c0.6,0.5,1,1.2,1.4,2c0.3,0.8,0.5,1.6,0.5,2.6
				s-0.2,1.8-0.5,2.6c-0.3,0.8-0.8,1.4-1.4,2c-0.6,0.5-1.3,1-2.1,1.3c-0.8,0.3-1.7,0.5-2.7,0.5c-1,0-1.9-0.1-2.7-0.5
				c-0.8-0.3-1.5-0.7-2.1-1.3c-0.6-0.5-1.1-1.2-1.4-2c-0.3-0.8-0.5-1.6-0.5-2.6s0.2-1.8,0.5-2.6c0.3-0.8,0.8-1.4,1.4-2
				c0.6-0.5,1.3-1,2.1-1.3C124.7,74.8,125.6,74.6,126.6,74.6z M126,75.6c-0.6,0-1.1,0.1-1.5,0.4s-0.8,0.7-1.1,1.1
				c-0.3,0.5-0.5,1-0.6,1.6c-0.1,0.6-0.2,1.2-0.2,1.8c0,0.7,0.1,1.3,0.3,2c0.2,0.7,0.5,1.3,0.8,1.8c0.4,0.5,0.8,1,1.4,1.3
				c0.6,0.3,1.2,0.5,2,0.5c0.6,0,1.1-0.1,1.5-0.4c0.4-0.3,0.8-0.7,1.1-1.1c0.3-0.5,0.5-1,0.6-1.6c0.1-0.6,0.2-1.2,0.2-1.8
				c0-0.6-0.1-1.3-0.3-2c-0.2-0.7-0.5-1.3-0.8-1.8c-0.4-0.6-0.8-1-1.4-1.3C127.4,75.7,126.8,75.6,126,75.6z"/>
			<path class="st1" d="M135.1,75.5l4.6-0.7v1.6c0.6-0.4,1.2-0.9,1.9-1.2c0.7-0.4,1.4-0.6,2.1-0.6c0.6,0,1.1,0.1,1.7,0.2
				c0.5,0.1,1,0.4,1.4,0.7c0.4,0.3,0.7,0.8,1,1.3c0.2,0.6,0.4,1.3,0.4,2.1v5.5c0,0.7,0.2,1.1,0.6,1.4s0.9,0.4,1.6,0.5v0.4
				c-0.6,0-1.2-0.1-1.9-0.1c-0.7,0-1.4,0-2.1,0c-0.5,0-0.9,0-1.4,0c-0.4,0-0.9,0.1-1.3,0.1v-0.4c0.7-0.1,1.2-0.3,1.5-0.5
				c0.4-0.2,0.5-0.7,0.5-1.4v-5c0-1.1-0.2-1.9-0.7-2.5c-0.4-0.6-1.2-0.9-2.2-0.9c-0.4,0-0.7,0.1-1.1,0.2s-0.7,0.2-1,0.4
				c-0.3,0.2-0.6,0.4-0.8,0.6s-0.3,0.4-0.3,0.6v6.6c0,0.7,0.2,1.1,0.6,1.4c0.4,0.2,1,0.4,1.8,0.5v0.4c-0.7,0-1.4-0.1-2.1-0.1
				c-0.7,0-1.4,0-2.1,0c-0.5,0-0.9,0-1.4,0c-0.4,0-0.9,0.1-1.4,0.1v-0.4c0.7-0.1,1.2-0.3,1.6-0.5c0.4-0.2,0.6-0.7,0.6-1.4v-7.2
				c0-0.6-0.2-1-0.6-1.2c-0.4-0.1-0.9-0.2-1.5-0.2V75.5z"/>
			<path class="st1" d="M162.9,79.8c-0.2-0.5-0.4-1-0.7-1.6c-0.3-0.5-0.6-1-0.9-1.4c-0.4-0.4-0.8-0.8-1.3-1
				c-0.5-0.3-1.1-0.4-1.7-0.4c-0.6,0-1.2,0.2-1.7,0.5c-0.5,0.3-0.8,0.7-1.1,1.2c-0.3,0.5-0.5,1-0.6,1.6c-0.1,0.6-0.2,1.2-0.2,1.8
				c0,0.7,0.1,1.3,0.3,2c0.2,0.6,0.6,1.2,1,1.7c0.4,0.5,0.9,0.9,1.5,1.2c0.6,0.3,1.3,0.4,2,0.4c0.8,0,1.5-0.1,2.2-0.4
				c0.7-0.3,1.3-0.6,2-1.1l0.4,0.5c-0.9,0.8-1.9,1.3-2.8,1.7s-1.9,0.6-3,0.6c-0.8,0-1.6-0.2-2.3-0.5c-0.7-0.3-1.4-0.8-1.9-1.3
				c-0.6-0.6-1-1.2-1.3-2c-0.3-0.8-0.5-1.6-0.5-2.4c0-0.9,0.2-1.7,0.5-2.4c0.3-0.8,0.8-1.4,1.3-2c0.6-0.6,1.2-1,1.9-1.3
				c0.7-0.3,1.5-0.5,2.3-0.5c0.9,0,1.7,0,2.4,0.1c0.7,0.1,1.5,0.2,2.2,0.4l0.4,4.7H162.9z"/>
			<path class="st1" d="M170.2,82.8c0,0.9,0.2,1.5,0.7,2c0.4,0.5,1.1,0.7,2,0.7c0.7,0,1.3-0.2,2-0.5c0.7-0.3,1.1-0.7,1.4-1v-6.6
				c0-0.3,0-0.5-0.1-0.7c0-0.2-0.1-0.4-0.3-0.6c-0.2-0.2-0.4-0.3-0.7-0.5c-0.3-0.1-0.8-0.2-1.3-0.3V75l4.9-0.3v9.6
				c0,0.8,0.2,1.3,0.6,1.6c0.4,0.3,1,0.4,1.7,0.5v0.3c-0.8,0-1.6,0.1-2.4,0.1c-0.8,0-1.6,0.1-2.4,0.1v-1.6c-0.7,0.5-1.5,1-2.3,1.4
				c-0.8,0.4-1.7,0.6-2.6,0.6c-1,0-1.9-0.3-2.6-0.8c-0.7-0.6-1.1-1.4-1.1-2.6v-6.4c0-0.6-0.2-1-0.5-1.3c-0.3-0.2-1-0.4-1.8-0.5V75
				l4.8-0.4V82.8z"/>
			<path class="st1" d="M182.3,86.3c0.7-0.1,1.2-0.3,1.6-0.5s0.6-0.7,0.6-1.4v-7.2c0-0.6-0.2-1-0.6-1.2c-0.4-0.1-0.9-0.2-1.5-0.2
				v-0.4l4.6-0.7v1.8c0.2-0.2,0.5-0.4,0.9-0.7c0.3-0.3,0.7-0.5,1-0.8c0.4-0.3,0.7-0.5,1.1-0.7c0.4-0.2,0.7-0.3,1.1-0.3
				c0.8,0,1.4,0.2,1.8,0.7s0.6,1.1,0.7,1.9L191,78c0-0.1,0.1-0.3,0.1-0.5c0-0.2,0.1-0.4,0.1-0.6c0-0.3-0.1-0.6-0.3-0.8
				c-0.2-0.3-0.5-0.4-0.8-0.4c-0.3,0-0.6,0.1-0.9,0.2c-0.3,0.1-0.6,0.3-0.8,0.5c-0.3,0.2-0.5,0.5-0.8,0.7c-0.2,0.2-0.5,0.5-0.6,0.7
				v6.6c0,0.7,0.2,1.1,0.6,1.4c0.4,0.2,1,0.4,1.8,0.5v0.4c-0.7,0-1.4-0.1-2.1-0.1c-0.7,0-1.4,0-2.1,0c-0.5,0-0.9,0-1.4,0
				c-0.4,0-0.9,0.1-1.4,0.1V86.3z"/>
			<path class="st1" d="M96.3,107.9c0,0.8,0,1.5,0.1,1.9c0.1,0.5,0.3,0.8,0.5,1.1c0.3,0.3,0.6,0.5,1.1,0.6c0.5,0.1,1.2,0.3,2,0.5
				v0.4c-0.9,0-1.8-0.1-2.7-0.1c-0.9,0-1.8,0-2.7,0c-0.8,0-1.5,0-2.3,0c-0.8,0-1.5,0.1-2.3,0.1v-0.4c0.7-0.1,1.3-0.2,1.8-0.3
				c0.4-0.2,0.8-0.4,1-0.8c0.2-0.4,0.4-0.8,0.4-1.4c0.1-0.6,0.1-1.3,0.1-2.2V97c0-0.9,0-1.6-0.1-2.2c-0.1-0.6-0.2-1-0.4-1.4
				c-0.2-0.4-0.6-0.6-1-0.8c-0.4-0.2-1-0.3-1.8-0.3V92c0.3,0,0.7,0,1.2,0.1c0.5,0,1,0,1.5,0s1,0,1.5,0c0.5,0,0.8,0,1.1,0h6.8
				c1.1,0,2,0,2.8,0c0.8,0,1.7-0.1,2.6-0.1c0,0.4-0.1,0.9-0.1,1.3c0,0.4,0,0.8,0,1.3c0,0.5,0,1.1,0,1.6c0,0.5,0.1,1.1,0.1,1.6h-0.5
				c-0.3-1.2-0.8-2.1-1.3-2.8c-0.5-0.7-1.2-1.1-1.9-1.4c-0.7-0.3-1.5-0.5-2.4-0.5s-1.9-0.1-3-0.1c-0.4,0-0.7,0-1.1,0
				c-0.4,0-0.7,0-1.1,0v7.7h2.5c1.2,0,2.2-0.3,2.9-0.8c0.7-0.5,1.2-1.4,1.7-2.6h0.4c-0.1,1.4-0.1,2.8-0.1,4.2c0,0.7,0,1.4,0,2.1
				s0,1.3,0.1,2h-0.4c-0.2-0.8-0.4-1.4-0.7-1.9c-0.2-0.5-0.5-0.9-0.8-1.2c-0.3-0.3-0.7-0.5-1.2-0.7c-0.5-0.1-1-0.2-1.7-0.3
				c-0.2,0-0.4,0-0.6,0c-0.2,0-0.4,0-0.7,0h-1.5V107.9z"/>
			<path class="st1" d="M116.2,100.4c1,0,1.9,0.2,2.7,0.5c0.8,0.3,1.5,0.7,2.1,1.3c0.6,0.5,1,1.2,1.4,2c0.3,0.8,0.5,1.6,0.5,2.6
				s-0.2,1.8-0.5,2.6c-0.3,0.8-0.8,1.4-1.4,2c-0.6,0.5-1.3,1-2.1,1.3c-0.8,0.3-1.7,0.5-2.7,0.5c-1,0-1.9-0.1-2.7-0.5
				c-0.8-0.3-1.5-0.7-2.1-1.3c-0.6-0.5-1.1-1.2-1.4-2c-0.3-0.8-0.5-1.6-0.5-2.6s0.2-1.8,0.5-2.6c0.3-0.8,0.8-1.4,1.4-2
				c0.6-0.5,1.3-1,2.1-1.3C114.3,100.5,115.2,100.4,116.2,100.4z M115.6,101.3c-0.6,0-1.1,0.1-1.5,0.4c-0.4,0.3-0.8,0.7-1.1,1.1
				c-0.3,0.5-0.5,1-0.6,1.6c-0.1,0.6-0.2,1.2-0.2,1.8c0,0.7,0.1,1.3,0.3,2c0.2,0.7,0.5,1.3,0.8,1.8c0.4,0.5,0.8,1,1.4,1.3
				c0.6,0.3,1.2,0.5,2,0.5c0.6,0,1.1-0.1,1.5-0.4c0.4-0.3,0.8-0.7,1.1-1.1c0.3-0.5,0.5-1,0.6-1.6c0.1-0.6,0.2-1.2,0.2-1.8
				c0-0.6-0.1-1.3-0.3-2c-0.2-0.7-0.5-1.3-0.8-1.8c-0.4-0.6-0.8-1-1.4-1.3C117.1,101.5,116.4,101.3,115.6,101.3z"/>
			<path class="st1" d="M129.2,108.5c0,0.9,0.2,1.5,0.7,2c0.4,0.5,1.1,0.7,2,0.7c0.7,0,1.3-0.2,2-0.5c0.7-0.3,1.1-0.7,1.5-1v-6.6
				c0-0.3,0-0.5-0.1-0.7c0-0.2-0.1-0.4-0.3-0.6c-0.2-0.2-0.4-0.3-0.7-0.5c-0.3-0.1-0.8-0.2-1.3-0.3v-0.3l4.9-0.3v9.6
				c0,0.8,0.2,1.3,0.6,1.6c0.4,0.3,1,0.4,1.7,0.5v0.3c-0.8,0-1.6,0.1-2.4,0.1c-0.8,0-1.6,0.1-2.4,0.1v-1.6c-0.7,0.5-1.5,1-2.3,1.4
				c-0.8,0.4-1.7,0.6-2.6,0.6c-1,0-1.9-0.3-2.6-0.8c-0.7-0.6-1.1-1.4-1.1-2.6V103c0-0.6-0.2-1-0.5-1.3c-0.3-0.2-1-0.4-1.8-0.5v-0.4
				l4.8-0.4V108.5z"/>
			<path class="st1" d="M141.5,101.3l4.6-0.7v1.6c0.6-0.4,1.2-0.9,1.9-1.2c0.7-0.4,1.4-0.6,2.1-0.6c0.6,0,1.1,0.1,1.7,0.2
				c0.5,0.1,1,0.4,1.4,0.7c0.4,0.3,0.7,0.8,1,1.3c0.2,0.6,0.4,1.3,0.4,2.1v5.5c0,0.7,0.2,1.1,0.6,1.4s0.9,0.4,1.6,0.5v0.4
				c-0.6,0-1.2-0.1-1.9-0.1c-0.7,0-1.4,0-2.1,0c-0.5,0-0.9,0-1.4,0c-0.4,0-0.9,0.1-1.3,0.1v-0.4c0.7-0.1,1.2-0.3,1.5-0.5
				c0.4-0.2,0.5-0.7,0.5-1.4v-5c0-1.1-0.2-1.9-0.7-2.5c-0.4-0.6-1.2-0.9-2.2-0.9c-0.4,0-0.7,0.1-1.1,0.2s-0.7,0.2-1,0.4
				c-0.3,0.2-0.6,0.4-0.8,0.6s-0.3,0.4-0.3,0.6v6.6c0,0.7,0.2,1.1,0.6,1.4c0.4,0.2,1,0.4,1.8,0.5v0.4c-0.7,0-1.4-0.1-2.1-0.1
				c-0.7,0-1.4,0-2.1,0c-0.5,0-0.9,0-1.4,0c-0.4,0-0.9,0.1-1.4,0.1v-0.4c0.7-0.1,1.2-0.3,1.6-0.5c0.4-0.2,0.6-0.7,0.6-1.4V103
				c0-0.6-0.2-1-0.6-1.2c-0.4-0.1-0.9-0.2-1.5-0.2V101.3z"/>
			<path class="st1" d="M171.3,109.2c0,0.5,0,1,0.1,1.3s0.2,0.6,0.4,0.9c0.2,0.2,0.5,0.4,0.8,0.5c0.3,0.1,0.8,0.1,1.4,0.1v0.4
				c-0.8,0-1.7,0-2.5,0c-0.8,0-1.7,0.1-2.5,0.1v-1.2c-0.5,0.4-1.1,0.8-2,1.1c-0.9,0.3-1.8,0.5-2.8,0.5c-0.9,0-1.6-0.2-2.3-0.5
				c-0.7-0.3-1.3-0.8-1.8-1.3c-0.5-0.5-0.9-1.2-1.1-1.9c-0.3-0.7-0.4-1.5-0.4-2.3c0-0.9,0.2-1.8,0.5-2.6c0.3-0.8,0.8-1.5,1.4-2.1
				c0.6-0.6,1.3-1,2.1-1.4c0.8-0.3,1.7-0.5,2.6-0.5c0.7,0,1.4,0.1,2,0.4c0.6,0.2,1.3,0.6,1.8,0.9v-8.1c0-0.5,0-0.9-0.1-1.2
				c-0.1-0.3-0.2-0.6-0.4-0.7c-0.2-0.2-0.5-0.3-0.8-0.4c-0.3-0.1-0.8-0.1-1.3-0.2v-0.4l5.1-0.5V109.2z M168.9,103.7
				c-0.1-0.3-0.2-0.6-0.5-0.9s-0.5-0.6-0.9-0.8c-0.4-0.2-0.8-0.4-1.2-0.6c-0.4-0.2-0.9-0.2-1.4-0.2c-0.7,0-1.3,0.2-1.8,0.5
				c-0.5,0.3-0.9,0.7-1.2,1.2c-0.3,0.5-0.5,1.1-0.7,1.7c-0.1,0.6-0.2,1.3-0.2,1.9s0.1,1.3,0.2,1.9c0.1,0.6,0.4,1.2,0.7,1.7
				c0.3,0.5,0.7,0.9,1.2,1.2c0.5,0.3,1.1,0.5,1.8,0.5c0.5,0,0.9-0.1,1.4-0.2c0.4-0.1,0.8-0.3,1.2-0.5c0.4-0.2,0.6-0.5,0.9-0.7
				c0.2-0.2,0.4-0.5,0.5-0.7V103.7z"/>
			<path class="st1" d="M176.3,103.2c0.2-0.6,0.4-1.2,0.7-1.5c0.3-0.4,0.6-0.7,1-0.9c0.4-0.2,0.8-0.3,1.3-0.4c0.5-0.1,1-0.1,1.6-0.1
				c0.5,0,1.1,0.1,1.6,0.2c0.5,0.1,1,0.3,1.4,0.6c0.4,0.3,0.8,0.6,1,1.1c0.3,0.4,0.4,1,0.4,1.6v5.8c0,0.4,0.1,0.7,0.3,1
				c0.2,0.3,0.5,0.5,1,0.5c0.4,0,0.8-0.1,1.1-0.4c0.3-0.2,0.6-0.5,0.9-0.7l0.3,0.3c-0.2,0.2-0.5,0.5-0.7,0.7
				c-0.3,0.3-0.6,0.6-0.9,0.8c-0.3,0.3-0.6,0.5-1,0.7c-0.3,0.2-0.6,0.3-1,0.3c-0.2,0-0.4-0.1-0.7-0.2c-0.2-0.1-0.5-0.3-0.7-0.5
				c-0.2-0.2-0.4-0.4-0.6-0.6c-0.2-0.2-0.4-0.4-0.5-0.5c-0.7,0.5-1.4,0.9-2.2,1.2c-0.8,0.4-1.6,0.6-2.4,0.6c-0.4,0-0.9-0.1-1.3-0.2
				c-0.4-0.1-0.8-0.4-1.1-0.6c-0.3-0.3-0.6-0.6-0.7-1c-0.2-0.4-0.3-0.8-0.3-1.3c0-0.9,0.2-1.5,0.7-2c0.5-0.5,1.1-0.9,1.9-1.2
				s1.6-0.5,2.6-0.5c1-0.1,1.9-0.1,2.9-0.2v-2.4c0-0.8-0.2-1.4-0.7-1.8c-0.5-0.4-1.1-0.6-1.8-0.6c-0.5,0-1,0.3-1.3,0.8
				c-0.3,0.5-0.5,1.2-0.5,1.8L176.3,103.2z M183,107c-0.7-0.2-1.4-0.3-2.1-0.3c-0.4,0-0.8,0-1.2,0.1c-0.4,0.1-0.7,0.2-1.1,0.5
				c-0.3,0.2-0.6,0.5-0.8,0.8c-0.2,0.3-0.3,0.7-0.3,1.2c0,0.7,0.2,1.2,0.7,1.5c0.5,0.3,1,0.5,1.6,0.5c0.7,0,1.3-0.1,1.8-0.4
				c0.6-0.3,1-0.5,1.2-0.7V107z"/>
			<path class="st1" d="M188.9,101.8v-0.5c0.7,0,1.2-0.2,1.7-0.5c0.5-0.3,0.9-0.7,1.2-1.2c0.4-0.5,0.6-1,0.9-1.6
				c0.2-0.6,0.5-1.1,0.6-1.7h0.4v4.5h4.3v0.9h-4.3v7.3c0,0.3,0,0.5,0,0.8c0,0.3,0.1,0.5,0.2,0.7c0.1,0.2,0.2,0.4,0.4,0.5
				c0.2,0.1,0.4,0.2,0.7,0.2c0.6,0,1.1-0.1,1.6-0.4c0.4-0.3,0.8-0.6,1.2-1l0.3,0.3c-0.4,0.3-0.7,0.6-1,0.9c-0.3,0.3-0.7,0.6-1,0.9
				s-0.8,0.5-1.2,0.6c-0.4,0.2-0.9,0.2-1.4,0.2c-0.9,0-1.5-0.3-1.8-0.8c-0.3-0.5-0.5-1.2-0.5-1.9v-8.3H188.9z"/>
			<path class="st1" d="M201.4,104.6c0-0.5,0-0.9,0-1.3c0-0.4-0.1-0.7-0.3-1c-0.2-0.3-0.4-0.5-0.7-0.6c-0.3-0.2-0.7-0.3-1.3-0.3
				v-0.4l4.7-0.3v9.2c0,0.5,0,0.9,0.1,1.2c0.1,0.3,0.2,0.5,0.4,0.7c0.2,0.2,0.5,0.3,0.8,0.3c0.3,0.1,0.7,0.1,1.2,0.1v0.4
				c-0.7,0-1.5-0.1-2.2-0.1c-0.7,0-1.5,0-2.2,0c-0.5,0-0.9,0-1.4,0c-0.5,0-0.9,0.1-1.4,0.1v-0.4c0.4,0,0.8-0.1,1.1-0.1
				c0.3-0.1,0.5-0.2,0.7-0.3c0.2-0.2,0.3-0.4,0.4-0.7c0.1-0.3,0.1-0.7,0.1-1.2V104.6z M202.3,91.4c0.5,0,0.8,0.2,1.2,0.5
				c0.3,0.3,0.5,0.7,0.5,1.2c0,0.5-0.2,0.9-0.5,1.2c-0.3,0.3-0.7,0.5-1.2,0.5c-0.5,0-0.8-0.2-1.2-0.5c-0.3-0.3-0.5-0.7-0.5-1.2
				c0-0.5,0.2-0.9,0.5-1.2C201.4,91.6,201.8,91.4,202.3,91.4z"/>
			<path class="st1" d="M214.4,100.4c1,0,1.9,0.2,2.7,0.5c0.8,0.3,1.5,0.7,2.1,1.3c0.6,0.5,1,1.2,1.4,2c0.3,0.8,0.5,1.6,0.5,2.6
				s-0.2,1.8-0.5,2.6c-0.3,0.8-0.8,1.4-1.4,2c-0.6,0.5-1.3,1-2.1,1.3c-0.8,0.3-1.7,0.5-2.7,0.5c-1,0-1.9-0.1-2.7-0.5
				c-0.8-0.3-1.5-0.7-2.1-1.3c-0.6-0.5-1.1-1.2-1.4-2c-0.3-0.8-0.5-1.6-0.5-2.6s0.2-1.8,0.5-2.6c0.3-0.8,0.8-1.4,1.4-2
				c0.6-0.5,1.3-1,2.1-1.3C212.5,100.5,213.4,100.4,214.4,100.4z M213.8,101.3c-0.6,0-1.1,0.1-1.5,0.4c-0.4,0.3-0.8,0.7-1.1,1.1
				c-0.3,0.5-0.5,1-0.6,1.6c-0.1,0.6-0.2,1.2-0.2,1.8c0,0.7,0.1,1.3,0.3,2c0.2,0.7,0.5,1.3,0.8,1.8c0.4,0.5,0.8,1,1.4,1.3
				c0.6,0.3,1.2,0.5,2,0.5c0.6,0,1.1-0.1,1.5-0.4c0.4-0.3,0.8-0.7,1.1-1.1c0.3-0.5,0.5-1,0.6-1.6c0.1-0.6,0.2-1.2,0.2-1.8
				c0-0.6-0.1-1.3-0.3-2c-0.2-0.7-0.5-1.3-0.8-1.8c-0.4-0.6-0.8-1-1.4-1.3C215.2,101.5,214.6,101.3,213.8,101.3z"/>
			<path class="st1" d="M222.9,101.3l4.6-0.7v1.6c0.6-0.4,1.2-0.9,1.9-1.2c0.7-0.4,1.4-0.6,2.1-0.6c0.6,0,1.1,0.1,1.7,0.2
				c0.5,0.1,1,0.4,1.4,0.7c0.4,0.3,0.7,0.8,1,1.3c0.2,0.6,0.4,1.3,0.4,2.1v5.5c0,0.7,0.2,1.1,0.6,1.4s0.9,0.4,1.6,0.5v0.4
				c-0.6,0-1.2-0.1-1.9-0.1c-0.7,0-1.4,0-2.1,0c-0.5,0-0.9,0-1.4,0c-0.4,0-0.9,0.1-1.3,0.1v-0.4c0.7-0.1,1.2-0.3,1.5-0.5
				s0.5-0.7,0.5-1.4v-5c0-1.1-0.2-1.9-0.7-2.5c-0.4-0.6-1.2-0.9-2.2-0.9c-0.4,0-0.7,0.1-1.1,0.2c-0.4,0.1-0.7,0.2-1,0.4
				c-0.3,0.2-0.6,0.4-0.8,0.6c-0.2,0.2-0.3,0.4-0.3,0.6v6.6c0,0.7,0.2,1.1,0.6,1.4c0.4,0.2,1,0.4,1.8,0.5v0.4
				c-0.7,0-1.4-0.1-2.1-0.1c-0.7,0-1.4,0-2.1,0c-0.5,0-0.9,0-1.4,0c-0.4,0-0.9,0.1-1.4,0.1v-0.4c0.7-0.1,1.2-0.3,1.6-0.5
				s0.6-0.7,0.6-1.4V103c0-0.6-0.2-1-0.6-1.2c-0.4-0.1-0.9-0.2-1.5-0.2V101.3z"/>
		</g>
	</g>
	<path class="st2" d="M73,119.7H25.6c-6.9,0-12.5-5.6-12.5-12.5V59.7c0-6.9,5.6-12.5,12.5-12.5H73c6.9,0,12.5,5.6,12.5,12.5v47.4
		C85.6,114,79.9,119.7,73,119.7z"/>
	<g>
		<path class="st1" d="M55.8,73.4c1.4,0.1,2.9,0.1,4.3,0.2c1.4,0,2.9,0.1,4.3,0.1c1.3,0,2.5,0,3.8-0.1c1.3,0,2.5-0.1,3.8-0.2v0.7
			c-1.7,0.2-3,0.7-4.1,1.4c-1.1,0.7-1.6,2-1.6,3.9c0,1,0.1,2.6,0.4,4.9c0.3,2.2,0.7,4.7,1.1,7.4c0.5,2.7,0.9,5.3,1.4,8
			c0.5,2.7,1,4.9,1.4,6.8c0.2,0.8,0.4,1.5,0.7,2.1c0.2,0.6,0.6,1.1,1,1.6c0.4,0.5,1.1,0.8,1.9,1.1c0.8,0.3,1.9,0.5,3.2,0.7v0.7
			c-1.6-0.1-3.2-0.1-4.7-0.2c-1.6,0-3.2-0.1-4.7-0.1c-1.5,0-3,0-4.4,0.1c-1.5,0-2.9,0.1-4.4,0.2v-0.7c0.8-0.1,1.6-0.3,2.4-0.4
			c0.8-0.2,1.4-0.4,2-0.8c0.6-0.4,1-0.8,1.3-1.5c0.3-0.6,0.5-1.4,0.5-2.5c0-0.5,0-1.1-0.1-1.9c0-0.8-0.2-1.7-0.4-2.7l-4.1-24h-0.1
			c-1.1,2.9-2.3,5.7-3.5,8.5c-1.2,2.8-2.4,5.6-3.6,8.4c-1.2,2.8-2.4,5.7-3.5,8.6c-1.1,2.9-2.2,5.8-3.1,8.8h-0.1
			c-1.9-6.2-4.1-12.1-6.5-17.8c-2.4-5.7-5-11.4-7.7-17.1h-0.1c-0.3,2.2-0.6,4.6-1,7.3c-0.3,2.7-0.6,5.3-0.9,7.8
			c-0.3,2.5-0.5,4.8-0.6,6.9c-0.2,2.1-0.2,3.6-0.2,4.7c0,1.3,0.1,2.4,0.3,3.4c0.2,1,0.5,1.7,1,2.4c0.5,0.6,1.2,1.1,2.1,1.4
			c0.9,0.3,2.1,0.5,3.5,0.6v0.7c-1.7-0.1-3.3-0.1-4.9-0.2c-1.6,0-3.2-0.1-4.9-0.1c-1.2,0-2.5,0-3.7,0.1c-1.2,0-2.4,0.1-3.7,0.2v-0.7
			c0.8-0.1,1.7-0.2,2.5-0.5c0.8-0.2,1.6-0.6,2.2-1c0.7-0.4,1.2-0.9,1.7-1.5c0.5-0.6,0.7-1.3,0.9-2.1c0.2-1.4,0.5-2.9,0.7-4.4
			c0.2-1.5,0.4-3,0.6-4.6l2.9-21.2c-0.8-0.7-1.8-1.2-3-1.7c-1.2-0.4-2.3-0.8-3.5-1v-0.7c1.7,0.1,3.4,0.1,5.1,0.2
			c1.7,0,3.4,0.1,5.1,0.1c1.2,0,2.5,0,3.7-0.1c1.2,0,2.4-0.1,3.7-0.2v0.7c-0.8,0.2-1.5,0.5-2.1,1c-0.6,0.5-1,1.2-1,2.2
			c0,0.7,0.1,1.3,0.3,2c0.2,0.6,0.5,1.3,0.7,2l8.4,20.6c2-4.2,4-8.4,5.8-12.7c1.8-4.2,3.5-8.6,5-13c-0.4-0.5-1-0.9-1.6-1.3
			c-0.6-0.3-1.2-0.6-1.9-0.8V73.4z"/>
	</g>
</g>
</svg>
